<?xml version="1.0" encoding="utf-8"?>
<svg viewBox="-60 -25 360 370" width="360" style="border:1px none silver ; margin: 10px 0 0 0" xmlns="http://www.w3.org/2000/svg">

<link rel="stylesheet" href="../../svg-flowchart.css" xmlns="http://www.w3.org/1999/xhtml"/>

<defs>
<marker id="arrow" viewBox="-2 -2 19 12" refX="12" refY="4" markerUnits="userSpaceOnUse" markerWidth="19" markerHeight="12" orient="auto-start-reverse">
	<path d="M 0 0 L 15 4 L 0 8 z"/>
	</marker>
<marker id="hollow-arrow" viewBox="-2 -2 19 12" refX="15" refY="4" markerUnits="userSpaceOnUse" markerWidth="19" markerHeight="12" orient="auto-start-reverse">
	<path d="M 0 0 L 15 4 L 0 8 z"/>
	</marker>
<marker id="hollow-circle" viewBox="-5 -5 10 10" refX="0" refY="0" markerUnits="userSpaceOnUse" markerWidth="10" markerHeight="10" orient="auto-start-reverse" style="stroke:black ; stroke-width:1 ; fill:white">
	<circle r="4"/>
	</marker>
</defs>

<g id="start" transform="translate(0,0)">
	<line class="thread" y1="-20" y2="320" />
	<circle r="10" />
	<path d="m0 10 v20" />
	<g transform="translate(0,45)">
		<rect x="-50" y="-15" width="100" height="30"/>
		<text y="0">Init fetch</text>
		</g>
	<path d="m0 60 v30" marker-end="url(#arrow)"/>
	<circle cy="100" r="10" />
	<path d="m 10 100 h 60" marker-end="url(#hollow-arrow)" stroke-dasharray="3 3"></path>
	</g>

<g id="start" transform="translate(80,0)">
	<line class="thread" y1="-20" y2="320" />
	<g transform="translate(0,100)">
		<circle r="10" />
		<path d="m0 10 v20" />
		<g transform="translate(0,45)">
			<rect x="-50" y="-15" width="100" height="30"/>
			<text>Fetch</text>
			</g>
		<path d="m0 60 v30" marker-end="url(#arrow)"/>
		<circle cy="100" r="10" />
		<path d="m 10 100 h 60" marker-end="url(#hollow-arrow)" stroke-dasharray="3 3"></path>
		</g>
	</g>

<g id="start" transform="translate(160,0)">
	<line class="thread" y1="-20" y2="320" />
	<g transform="translate(0,200)">
		<circle r="10" />
		<path d="m0 10 v20" />
		<g transform="translate(0,45)">
			<rect x="-50" y="-15" width="100" height="30"/>
			<text>Process</text>
			</g>
		<path d="m0 60 v30" marker-end="url(#arrow)"/>
		<circle cy="100" r="10" />
		</g>
	</g>
</svg>