<?xml version="1.0" encoding="utf-8"?>
<svg viewBox="-60 -25 390 310" width="390" xmlns="http://www.w3.org/2000/svg">

<link rel="stylesheet" href="/svg-flowchart.css" xmlns="http://www.w3.org/1999/xhtml"/>

<marker id="arrow" viewBox="-2 -2 19 12" refX="12" refY="4" markerUnits="userSpaceOnUse" markerWidth="19" markerHeight="12" orient="auto-start-reverse">
	<path d="M 0 0 L 15 4 L 0 8 z"/>
	</marker>
<marker id="hollow-arrow" viewBox="-2 -2 19 12" refX="15" refY="4" markerUnits="userSpaceOnUse" markerWidth="19" markerHeight="12" orient="auto-start-reverse">
	<path d="M 0 0 L 15 4 L 0 8 z"/>
	</marker>
<marker id="hollow-circle" viewBox="-5 -5 10 10" refX="0" refY="0" markerUnits="userSpaceOnUse" markerWidth="10" markerHeight="10" orient="auto-start-reverse" style="stroke:black ; stroke-width:1 ; fill:white">
	<circle r="4"/>
	</marker>

<line class="thread" y1="-15" y2="270" />
<line class="thread" x1="130" x2="130" y1="-15" y2="270" />
<line class="thread" x1="260" x2="260" y1="-15" y2="270" />

<g transform="translate(0,0)">
	<circle cx="0" cy="0" r="10" />
	<path d="m0 10 v20" />
	</g>

<g id="start" transform="translate(0,30)">
	<rect x="-50" y="0" width="100" height="25"/>
	<text y="13">Start process</text>
	<text x="80" y="0">start</text>
	<path d="m50 12.5 h 70" marker-start="url(#hollow-circle)" marker-end="url(#hollow-arrow)" stroke-dasharray="3 3"></path>
	<path class="arrow" d="m0 25 v33" />
	<circle cx="0" cy="70" r="10" />
	</g>

<g transform="translate(130,70)">
	<circle cx="0" cy="-27.5" r="10" />
	<path d="m0 -17.5 v17.5" />
	<rect x="-60" y="0" width="120" height="25"/>
	<text y="13">Async process</text>
	<path d="m0 25 v15" />
	<rect x="-60" y="40" width="120" height="25"/>
	<text y="53">Process Result</text>
	<text x="90" y="40">start</text>
	<path d="m60 52.5 h 62.5" marker-start="url(#hollow-circle)" marker-end="url(#hollow-arrow)" stroke-dasharray="3 3"></path>
	<path class="arrow" d="m0 65 v27.5" />
	<circle cx="0" cy="105" r="10" />
	</g>

<g transform="translate(260,150)">
	<circle cx="0" cy="-27.5" r="10" />
	<path d="m0 -17.5 v17.5" />
	<rect x="-60" y="0" width="120" height="25"/>
	<text y="13">Async process</text>
	<path d="m0 25 v15" />
	<rect x="-60" y="40" width="120" height="25"/>
	<text y="53">Process Result</text>
	<path class="arrow" d="m0 65 v27.5" />
	<circle cx="0" cy="105" r="10" />
	</g>

</svg>