<?xml version="1.0" encoding="utf-8"?>
<svg viewBox="-60 -25 360 220" width="360" style="border:1px none silver;margin:0px" xmlns="http://www.w3.org/2000/svg">

<link rel="stylesheet" href="/svg-flowchart.css" xmlns="http://www.w3.org/1999/xhtml"/>

<defs>
<marker id="arrow" viewBox="-2 -2 19 12" refX="12" refY="4" markerUnits="userSpaceOnUse" markerWidth="19" markerHeight="12" orient="auto-start-reverse">
	<path d="M 0 0 L 15 4 L 0 8 z"/>
	</marker>
<marker id="hollow-arrow" viewBox="-2 -2 19 12" refX="15" refY="4" markerUnits="userSpaceOnUse" markerWidth="19" markerHeight="12" orient="auto-start-reverse">
	<path d="M 0 0 L 15 4 L 0 8 z"/>
	</marker>
<marker id="hollow-circle" viewBox="-5 -5 10 10" refX="0" refY="0" markerUnits="userSpaceOnUse" markerWidth="10" markerHeight="10" orient="auto-start-reverse" style="stroke:black ; stroke-width:1 ; fill:white">
	<circle r="4"/>
	</marker>
</defs>

<line class="thread" y1="-20" y2="190" />
<line class="thread" x1="240" x2="240" y1="-20" y2="190" />

<g id="start" transform="translate(0,0)">
	<circle cx="0" cy="0" r="10" />
	<path d="m0 10 v20" />
	<rect x="-50" y="30" width="100" height="25"/>
	<text y="43">Start process</text>
	<text x="90" y="30">start</text>
	<path d="m50 42.5 h 180" marker-start="url(#hollow-circle)" marker-end="url(#hollow-arrow)" stroke-dasharray="3 3"></path>
	<path d="m0 55 v40" stroke-dasharray="5 5"/>
	<text x="5" y="75" style="text-anchor:start">after a while</text>
	</g>

<g id="fetch" transform="translate(0,90)">
	<rect x="-50" y="0" width="100" height="25"/>
	<text y="13">Fetch result</text>
	<path d="m 0 25 v 15" />
	<rect x="-50" y="40" width="100" height="25"/>
	<text y="53">Process result</text>
	<path d="m 0 65 v 20" />
	</g>

<g id="async-proc" transform="translate(240,80)">
	<circle cx="0" cy="-37.5" r="10" />
	<path d="m0 -27.5 v37.5" />
	<rect x="-50" y="10" width="100" height="25"/>
	<text y="23">Async process</text>
	<path d="m -50 22.5 h -45" stroke-dasharray="3 3" marker-start="url(#hollow-circle)" marker-end="url(#hollow-arrow)" />
	<path class="arrow" d="m0 35 v35" />
	<circle cx="0" cy="82.5" r="10" />
	</g>

<g id="result" transform="translate(120,90)">
	<rect x="-25" y="0" width="50" height="25"/>
	<text y="13">Result</text>
	<path d="m -25 12.5 h -45" stroke-dasharray="3 3" marker-start="url(#hollow-circle)" marker-end="url(#hollow-arrow)" />
	</g>

</svg>