<?xml version="1.0" encoding="utf-8"?>
<svg viewBox="-90 -25 310 280" width="310" xmlns="http://www.w3.org/2000/svg">

<link rel="stylesheet" href="/svg-flowchart.css" xmlns="http://www.w3.org/1999/xhtml"/>

<marker id="arrow" viewBox="-2 -2 19 12" refX="12" refY="4" markerUnits="userSpaceOnUse" markerWidth="19" markerHeight="12" orient="auto-start-reverse">
	<path d="M 0 0 L 15 4 L 0 8 z"/>
	</marker>
<marker id="hollow-arrow" viewBox="-2 -2 19 12" refX="15" refY="4" markerUnits="userSpaceOnUse" markerWidth="19" markerHeight="12" orient="auto-start-reverse">
	<path d="M 0 0 L 15 4 L 0 8 z"/>
	</marker>
<marker id="hollow-circle" viewBox="-5 -5 10 10" refX="0" refY="0" markerUnits="userSpaceOnUse" markerWidth="10" markerHeight="10" orient="auto-start-reverse" style="stroke:black ; stroke-width:1 ; fill:white">
	<circle r="4"/>
	</marker>


<line class="thread" y1="-20" y2="245" />
<line class="thread" x1="150" x2="150" y1="-20" y2="245" />

<g transform="translate(0,0)">
	<circle cx="0" cy="0" r="10" />
	<path d="m0 10 v20" />
	</g>

<g transform="translate(0,30)">
	<rect x="-50" y="0" width="100" height="25"/>
	<text y="13">Start process</text>
	<text x="90" y="0">start</text>
	<path d="m50 12.5 h 90" marker-start="url(#hollow-circle)" marker-end="url(#hollow-arrow)" stroke-dasharray="3 3"></path>
	<path class="arrow" d="m0 25 v33" />
	</g>

<g transform="translate(0,100)">
	<circle cx="0" cy="0" r="10" />
	<text class="right" x="-15">suspended:</text>
	<path d="m0 10 v30" stroke-dasharray="5 5"/>
	<circle cx="0" cy="45" r="10" />
	<text class="right" x="-15" y="45">resumed:</text>
	<path class="arrow" d="m0 55 v33" />
	</g>

<g transform="translate(0,190)">
	<rect x="-80" y="0" width="160" height="25"/>
	<text y="13">Fetch and process result</text>
	<path d="m 0 25 v 20" />
	</g>

<g transform="translate(150,42.5)">
	<circle cx="0" cy="0" r="10" />
	<path d="m0 10 v34" />
	</g>

<g transform="translate(150,87.5)">
	<rect x="-60" y="0" width="120" height="25"/>
	<text y="13">Async process</text>
	<path class="arrow" d="m0 25 v30" />
	<text x="-95" y="0">finished</text>
	<path d="m -60 12.5 h -80" stroke-dasharray="3 3" marker-start="url(#hollow-circle)" marker-end="url(#hollow-arrow)" />
	</g>

<g transform="translate(150,155)">
	<circle cx="0" cy="0" r="10" />
	</g>

</svg>