<?xml version="1.0" encoding="utf-8"?>
<svg viewBox="-100 -15 160 230" width="160" xmlns="http://www.w3.org/2000/svg">

<link rel="stylesheet" href="/svg-flowchart.css" xmlns="http://www.w3.org/1999/xhtml"/>

<marker id="arrow" viewBox="-2 -2 19 12" refX="12" refY="4" markerUnits="userSpaceOnUse" markerWidth="19" markerHeight="12" orient="auto-start-reverse">
	<path d="M 0 0 L 15 4 L 0 8 z"/>
	</marker>

<g transform="translate(0,0)">
	<circle cx="0" cy="0" r="10" />
	<path d="m0 10 v20" />
	</g>

<g transform="translate(0,30)">
	<rect x="-50" y="0" width="100" height="25"/>
	<text y="13">Start process</text>
	<path class="arrow" d="m0 25 v28" />
	</g>

<g transform="translate(0,45 )">
	<rect x="-50" y="40" width="100" height="25"/>
	<text y="53">Check status</text>
	<path d="m0 65 v20" />
	</g>

<g transform="translate(0,130)">
	<path class="closed" d="M-30 0 L 30 0 50 15 30 30 -30 30 -50 15 z" />
	<text y="17">Completed?</text>
	<path class="arrow" d="M-50 15 h-40 v-50 h38" />
	<text x="-70" y="0">N</text>
	<text x="20" y="50">Y</text>
	</g>

<g transform="translate(0,160)">
	<path class="arrow" d="m0 0 v28" />
	<circle cx="0" cy="40" r="10" />
	</g>




</svg>